<svg data-v-fde0c5aa="" 
    xmlns="http://www.w3.org/2000/svg" 
    viewBox="0 0 300 300" 
    class="iconAbove"><!----><defs data-v-fde0c5aa=""><!----></defs>
    
    <defs data-v-fde0c5aa=""><!----></defs>
    <g data-v-fde0c5aa="" id="7f5090cc-3a90-4669-a9f0-1df00fc1f6f5" fill="#33cccc" transform="matrix(3.2757971021179673,0,0,3.2757971021179673,19.737936213281554,162.3249351833054)">
    <path d="M0.08 4.66L3.28 10.89L3.28 15.33L5.70 15.33L5.70 10.92L8.90 4.66L6.29 4.66L4.55 8.78L2.81 4.66ZM11.14 10.02C11.14 9.03 11.44 8.74 12.19 8.74C12.96 8.74 13.26 9.03 13.26 10.02L13.26 12.15C13.26 13.13 12.96 13.43 12.19 13.43C11.44 13.43 11.14 13.13 11.14 12.15ZM12.19 6.66C9.87 6.66 8.78 7.77 8.78 10.05L8.78 12.11C8.78 14.41 9.87 15.50 12.19 15.50C14.53 15.50 15.62 14.41 15.62 12.11L15.62 10.05C15.62 7.77 14.53 6.66 12.19 6.66ZM21.62 15.33L23.66 15.33L23.66 6.83L21.29 6.83L21.29 12.22C21.29 13.09 20.96 13.43 20.30 13.43C19.57 13.43 19.33 13.06 19.33 12.17L19.33 6.83L16.97 6.83L16.97 12.43C16.97 14.53 17.79 15.50 19.47 15.50C20.38 15.50 21.07 15.27 21.52 14.78ZM25.27 4.66L25.27 15.33L27.58 15.33L27.58 8.89L28.88 12.40L30.81 12.40L32.12 8.90L32.12 15.33L34.43 15.33L34.43 4.66L31.78 4.66L29.93 9.76L28.07 4.66ZM40.45 12.66C40.39 13.24 40.14 13.58 39.30 13.58C38.54 13.58 38.21 13.16 38.21 12.28L38.21 11.79L42.69 11.79L42.69 9.95C42.69 7.69 41.57 6.66 39.31 6.66C37.00 6.66 35.88 7.92 35.88 9.94L35.88 12.08C35.88 14.46 36.99 15.50 39.31 15.50C41.57 15.50 42.55 14.49 42.62 12.66ZM38.21 9.86C38.21 8.88 38.54 8.50 39.34 8.50C40.10 8.50 40.46 8.89 40.46 9.80L40.46 10.09L38.21 10.09ZM52.61 11.49L52.61 11.83C52.58 12.82 52.16 13.23 51.35 13.23C50.39 13.23 50.04 12.73 50.04 11.55L50.04 8.48C50.04 7.28 50.40 6.76 51.35 6.76C52.14 6.76 52.60 7.20 52.60 8.16L52.60 8.39L55.19 8.39L55.19 8.20C55.19 5.80 53.90 4.49 51.35 4.49C48.72 4.49 47.49 5.87 47.49 8.36L47.49 11.65C47.49 14.13 48.72 15.50 51.35 15.50C53.93 15.50 55.19 14.18 55.20 11.79L55.20 11.49ZM58.70 10.02C58.70 9.03 59.00 8.74 59.75 8.74C60.52 8.74 60.82 9.03 60.82 10.02L60.82 12.15C60.82 13.13 60.52 13.43 59.75 13.43C59.00 13.43 58.70 13.13 58.70 12.15ZM59.75 6.66C57.43 6.66 56.34 7.77 56.34 10.05L56.34 12.11C56.34 14.41 57.43 15.50 59.75 15.50C62.09 15.50 63.18 14.41 63.18 12.11L63.18 10.05C63.18 7.77 62.09 6.66 59.75 6.66ZM69.17 15.33L71.26 15.33L71.26 4.52L68.91 4.52L68.91 7.22C68.53 6.87 68.00 6.66 67.26 6.66C65.70 6.66 64.41 7.73 64.41 9.93L64.41 12.11C64.41 14.34 65.38 15.50 67.20 15.50C67.86 15.50 68.59 15.36 69.09 14.85ZM68.89 12.25C68.89 13.12 68.54 13.43 67.83 13.43C67.09 13.43 66.78 13.09 66.78 12.15L66.78 10.02C66.78 9.09 67.16 8.74 67.84 8.74C68.47 8.74 68.89 9.06 68.89 9.95ZM77.21 12.66C77.15 13.24 76.90 13.58 76.06 13.58C75.31 13.58 74.97 13.16 74.97 12.28L74.97 11.79L79.45 11.79L79.45 9.95C79.45 7.69 78.33 6.66 76.08 6.66C73.77 6.66 72.65 7.92 72.65 9.94L72.65 12.08C72.65 14.46 73.75 15.50 76.08 15.50C78.33 15.50 79.31 14.49 79.38 12.66ZM74.97 9.86C74.97 8.88 75.31 8.50 76.10 8.50C76.86 8.50 77.22 8.89 77.22 9.80L77.22 10.09L74.97 10.09Z"></path></g><defs data-v-fde0c5aa=""><!----></defs><g data-v-fde0c5aa="" id="7782dbf7-c5b2-4e2a-8bc1-74bf830997c0" stroke="none" fill="#33cccc" transform="matrix(0.8368103231736065,0,0,0.8368103231736065,108.15948304327515,81.12621882318601)"><g data-name="Group"><path data-name="Compound Path" d="M50 36.9A13.1 13.1 0 1063.1 50 13.1 13.1 0 0050 36.9zM50 57a7.1 7.1 0 117.1-7 7.1 7.1 0 01-7.1 7.1zM60.1 6.9H39.9a3 3 0 00-3 3v20.2a3 3 0 003 3h20.2a3 3 0 003-3V9.9a3 3 0 00-3-3zm-3 20.1H42.9V12.9h14.2zM60.1 66.9H39.9a3 3 0 00-3 3v20.2a3 3 0 003 3h20.2a3 3 0 003-3V69.9a3 3 0 00-3-3zm-3 20.1H42.9V72.9h14.2zM30.1 36.9H9.9a3 3 0 00-3 3v20.2a3 3 0 003 3h20.2a3 3 0 003-3V39.9a3 3 0 00-3-3zm-3 20.1H12.9V42.9h14.2zM30.1 6.9H9.9a3 3 0 00-3 3v20.2a3 3 0 003 3h20.2a3 3 0 003-3V9.9a3 3 0 00-3-3zm-3 20.1H12.9V12.9h14.2zM20 66.9A13.1 13.1 0 1033.1 80 13.1 13.1 0 0020 66.9zM20 87a7.1 7.1 0 117.1-7 7.1 7.1 0 01-7.1 7.1zM90.1 36.9H69.9a3 3 0 00-3 3v20.2a3 3 0 003 3h20.2a3 3 0 003-3V39.9a3 3 0 00-3-3zm-3 20.1H72.9V42.9h14.2zM90.1 6.9H69.9a3 3 0 00-3 3v20.2a3 3 0 003 3h20.2a3 3 0 003-3V9.9a3 3 0 00-3-3zm-3 20.1H72.9V12.9h14.2zM90.1 66.9H69.9a3 3 0 00-3 3v20.2a3 3 0 003 3h20.2a3 3 0 003-3V69.9a3 3 0 00-3-3zm-3 20.1H72.9V72.9h14.2z"></path></g></g><!----></svg>